<?xml version="1.0" encoding="UTF-8"?>
<!DOCTYPE svg PUBLIC "-//W3C//DTD SVG 1.1//EN" "http://www.w3.org/Graphics/SVG/1.1/DTD/svg11.dtd">
<!-- Creator: CorelDRAW 2019 (64-Bit) -->
<svg xmlns="http://www.w3.org/2000/svg" xml:space="preserve" width="11.6929in" height="8.26772in" version="1.1" style="shape-rendering:geometricPrecision; text-rendering:geometricPrecision; image-rendering:optimizeQuality; fill-rule:evenodd; clip-rule:evenodd"
viewBox="0 0 11692.91 8267.72"
 xmlns:xlink="http://www.w3.org/1999/xlink">
 <defs>
  <style type="text/css">
   <![CDATA[
    .fil0 {fill:#161716}
   ]]>
  </style>
 </defs>
 <g id="_0">
  <metadata id="CorelCorpID_0Corel-Layer"/>
  <path class="fil0" d="M5026.63 6131.21l5.48 -72.87 -0.59 -83.26 208.23 0 -0.13 212.19 -212.78 0 -0.2 -56.06zm-27.18 -63.26l-568.26 -0.34 -0.19 -450.33c130.97,-18.81 108.02,11.64 225.33,118.05 31.13,-26.86 101.78,-182.42 113.93,-219.9 1.87,1.93 5,1.99 5.74,5.67l119.94 217.2 115.26 -221.45c57.52,50.84 74.44,160.82 122.35,225.42 36.05,-55.05 84.95,-162.52 115.04,-225.59 59.24,54.31 72.57,163.74 124.53,226.39l114.08 -225.57c27.48,26.31 42.54,69.94 61.05,107.35 10.22,20.67 17.65,34.74 27.62,55.64 41.35,86.74 15.6,41.81 44.09,62.7l106.11 -224.69 115.7 218.88c61.75,-26.72 102.22,-115.87 148.08,-123.33l79.44 0 5.93 453.89 -805.52 0 -0.63 -92.87 106.11 -0c-8.42,-49.01 -11.71,-31.52 -166.69,-31.52 -67.39,0 -139.94,-2.69 -206.63,1.87l-2.42 122.52zm2521.02 -248.03l68.36 0.96 8.25 59.9c-56.45,66.13 -125.24,14.45 -76.61,-60.86zm-4490.02 -19.89c69.44,-52.49 122.5,0.99 73.36,68.64l-65.45 -2.42 -7.91 -66.22zm4586.34 -2.19l208.17 -345.73c154.47,37.79 118.22,237.47 123.22,408.24 4.8,164.04 50.92,375.49 -130.31,399.02 -71.02,9.22 -463.99,22 -526.28,13.04 -171.13,-24.6 -136.34,-243.2 -139.77,-416.15l296.56 0c37.22,10.73 25.01,123.32 130.88,83.19 59.29,-22.48 54.77,-88.52 37.52,-141.61zm-141.44 27.33l-324.43 2.84c-2.31,-61.16 -13.86,-218.15 1.19,-264.37 20.22,-62.14 79.83,-103.61 156.48,-105.23l195.95 327.75 -29.19 39.01zm-4332.54 -58.24c30.45,-60.37 124.83,-220.29 163.08,-266.22 56.5,40.18 116.07,75.28 177.04,116.48 61.5,41.55 120.28,102.7 75.52,207.94l-396.78 0.06 -18.87 -58.27zm-28.37 -15.82c-72.56,-29.15 -144.19,23.19 -113.31,106.51 22.81,61.55 129.75,78.63 152.94,-7.55l387.86 0.9 -243.27 370.86c-67.67,87.41 -120.33,153.5 -266.49,54.29 -41.48,-28.15 -82.82,-55.89 -124.28,-83.99 -82.16,-55.69 -165.83,-107.39 -250.63,-166.47 -181.98,-126.81 -19.33,-282.37 137.13,-516.49 52.91,-79.17 100.72,-198.33 226.47,-182.37 46.01,5.84 229.15,129.69 256.99,158.5 -16.75,44.1 -133.63,239.77 -163.42,265.81zm4475.56 33.13l-58.01 -6.03 -187.8 -320.32 447.85 -14.36 -202.04 340.71zm-3247.15 -1394.98l-169.89 -108.21 104.43 -178.43c53.14,32.32 125.08,77.43 179.93,102.32 -17.51,44.8 -82.04,159.45 -114.47,184.31zm4245.3 -492.65l-180.52 -105.78 104.76 -178.85c53.78,20.78 87.04,51.51 135.78,79.65 9.83,5.67 8.1,2.74 20.09,11.35 1.86,1.33 4.46,3.15 6.18,4.54 1.73,1.4 4.23,3.84 5.72,5.19l-92.01 183.91zm-2139.18 -179.99c66.99,-30.97 112.8,-72.08 176.39,-103.81l54.47 78.03c21.33,37.2 36.3,58.38 54.44,96.31l-92.23 59.04c-31.77,18.89 -56.99,35.78 -85.81,51.78l-107.25 -181.35zm2640.63 -196.54c28.86,81.25 98.24,146.04 127.35,222.61l-254.87 -19.57c30.21,73.22 101.36,148.17 131.22,222.71l-252.26 -18.38c28.18,76.47 95.02,148.3 131.26,224.16l-257.81 -19.31c30.02,48.88 114.33,173.65 130.3,223.3l-251.78 -19.13c23.79,69.96 98.06,146.38 130.94,224.1l-249.42 -19.13c20.03,131.03 72.5,164.69 -15.58,257.61 -68.65,-31.93 -125.57,-79.43 -188.58,-114.34 -65.87,-36.5 -133.89,-72.17 -189.97,-116.19l409.05 -685.93c33.31,8.12 54.46,25.58 80.98,43.12 -17.46,29.41 -45.15,59.76 -45.72,97.76 23.45,-1.05 31.61,10.13 67.36,-84.37 42.74,15.71 64.3,43.04 103.65,44.61 -8.12,-32.18 -3.81,-18.53 -32.96,-35.76 -10.13,-5.98 -17.79,-9.85 -25.78,-15.67l-17.05 -14.57c-1.16,-1.06 -3.46,-3.73 -5.26,-5.54l117.22 -197.01 -98.78 -69.58c26.88,-54.95 269.74,-459.28 294.66,-481.84l382.17 229.35c-19.4,35.78 -34.7,79.31 -77.8,93.94 -36.31,12.33 -106.82,26.89 -142.54,33.04zm-3250.92 -128.81c20.75,-23.7 332.69,-207.07 380.37,-230.61 1.91,1.8 5.05,1.78 5.83,5.29l68.85 108.95c26.76,46.24 46.87,82.49 73.3,124.77 51.22,81.94 98.24,160.4 142.29,241.64 -5.78,6.55 -5.15,7.8 -14.94,15.43l-80.79 45.57c12.9,55.07 89.43,155.53 114.85,209.87 -47.5,54.69 -67.81,15.86 -80.81,75.32 38.29,-9.03 60.86,-29.4 94.39,-46.07l19.83 24.11c43.28,64.09 15.91,66.6 55.97,53.7 0.77,-4.23 3.42,-7.32 0,-16.85l-44.29 -80.56 72.13 -41.04c38.88,36.33 75.84,115.08 105.43,166.3 85.67,148.28 248.15,398.11 308.43,521.42l-382.08 230.89c-88.13,-86.42 -29.86,-139.77 -12.56,-254.91l-250.46 15.6c36.28,-79.83 100.48,-143.1 133.23,-223.44l-253.14 17.48c32.32,-76.65 100.36,-149.54 132.81,-222.28l-253.44 16.95c11.6,-41.08 6.35,-26 31.44,-63.28 30.23,-44.91 78,-109.57 95.59,-158.2l-253.52 16.56c17.72,-38.52 41.59,-72.02 64.32,-108.09 27.2,-43.17 54.35,-70.54 68.49,-115.87l-253.11 18.15c25.96,-68.44 94.68,-141.7 128.49,-211.37 -64.32,-44.46 -148.93,-17.4 -186.32,-77.07 -9.04,-14.43 -23.46,-44.4 -30.6,-58.37zm-1440.06 -193.62c55.93,27.22 130.83,74.95 184.94,109.89 28.98,18.72 63.12,37.63 97.85,58.43 31.3,18.75 65.61,40.85 99.45,55.67 -12.73,49.21 -245.14,425.69 -302.11,521.4 -30.78,51.71 -79.04,124.03 -102.41,177.15 -38.04,-14.11 -49.33,-28.07 -83.44,-42.52 16.62,-27.15 45.07,-67.46 49.82,-101.87 -38.23,2.64 -41.86,17.46 -71.99,84.81 -42.37,-15.77 -59.25,-39.24 -103.29,-46.04 16.94,55.7 32.17,15.94 82.3,74.71l-116.06 197.12 97.57 64.37c-24.47,78.91 -230.66,374.01 -281.79,488.3 -44.69,-10.69 -345.23,-194.28 -388.99,-228.89 7.8,-19.61 19.9,-41.56 28.83,-56.46 31.26,-52.2 76.66,-44.41 187.55,-73.06 -20.72,-67.96 -99.63,-141.86 -127.63,-218.56l253.05 17.13c-31.36,-71.3 -106.83,-154.53 -132.68,-222.51l253.66 17.31c-13.89,-44.62 -106.44,-177.64 -133.37,-219.89l257.02 14.67c-19.06,-51.25 -101.92,-154.23 -132.39,-223.42l255.41 18.04c-34.47,-75.83 -103.35,-148.84 -133.51,-222.31l249.93 16.91c-20.28,-141.04 -76.86,-150.31 12.28,-260.39zm1405.44 180.85c61.23,161.94 109.41,118.95 214.06,158.18 -19.71,48.31 -115.48,174.46 -140.15,226.97l256.48 -15.9c-30.57,76.76 -103.31,148.99 -132.06,223.93l255.69 -18.11c-32.35,60.24 -118.59,181.05 -133.49,222.64l253.72 -17.3c-33.78,80.79 -97.3,142.5 -132.93,223.39l253.16 -17.7c-28.44,76.14 -97.39,147.67 -132.07,222.72l267.42 -18.07c-44.55,190.71 -54.02,125.81 32.83,267.43l197.9 -115.5c7.06,6.82 4.33,-0.09 17.42,17.39l198.12 333.7c37.31,61.63 67.37,113 104.64,177.08 32.6,56.06 84.16,127.22 105.22,181.79 -138.16,18.06 -150.15,77 -177.41,204.94 -95.4,-55.05 -62.63,123.58 -61.81,191.34l-950.36 1.15 -0.95 -234.13 -141.79 -4.27 -101.09 105.41 -123.7 -231.8 -118.13 223.42 -89.27 -164.85c-4.76,-9.91 -8.98,-21 -13.07,-28.27l-26.71 -31.19 -108.31 224.46c-52.64,-53.84 -78.4,-183.86 -131,-225.8 -19.9,49.2 -87.51,188.96 -115.58,226.38l-84.15 -165.27c-4.7,-9.73 -7.2,-17.47 -13,-28.1l-26.44 -33.87 -108.01 224.67c-54.32,-52.32 -78.76,-177.99 -130.85,-225.02l-111.13 235.32c-36.72,-13.83 -36.8,-22.63 -65.59,-51.9 -68.24,-69.41 -38.79,-54.31 -185.38,-54.31l-0.47 239.13 -812.48 -2.05c17.55,-135.13 -22.39,-182.65 -104.42,-235.98 38.72,-32.16 31.91,-28.71 31.56,-67.45 -43.85,-34.33 -115.67,-74.52 -163,-111.02l388.83 -654.31 201.07 116.33c2.49,-2.74 5.72,-8.13 6.54,-6.35l150.81 -246.63c37.5,-63.09 113.37,-205.19 155.7,-251.47l93.65 51.06 121.65 -198.26c45.27,16.73 60.32,40.59 107.3,46.5 -14.79,-38.02 -53.26,-50.91 -86.15,-63.33 13.86,-49.19 34.08,-53.96 48.04,-106.66 -60.37,19.48 -19.1,29.66 -76.14,80.93l-73.7 -45.11 420.73 -711.34 -197.95 -126.63 452.11 -763.03c28.03,19.33 30.24,35.01 52.39,58.09 20.77,21.65 32.26,28.79 63.92,40.05 53.52,19.04 131.06,17.6 161.29,-25.25 32.89,24.44 3.06,-10.76 35.16,44.3 75.75,2.85 136.22,-77.04 201.33,-103.29l415.17 708.17 -195.19 122.67zm-710.06 -872.77c9.07,-37.22 163.01,-295.19 187.42,-318.27l91.29 9.47 153.57 260.02c-144.9,106.88 -314.86,271.35 -432.28,48.78zm314.69 -373.56c78.93,-2.01 348.65,-11.57 409.09,3.81 21.3,113.94 -25.96,146.78 -90.56,190.43 -49.85,33.68 -126.82,92.87 -174.92,114.5l-162 -261.12 18.39 -47.61zm4331.6 -0.98c37.44,-73.3 117.86,-48.26 86.69,44.09 -28.87,7.31 -52.72,2.33 -74.62,-4.26l-12.07 -39.82zm-456.61 1.18l404.61 -1.67c40.97,9.17 -5.04,18.8 57.81,83.32 -27.02,44.04 -54.07,91.06 -83.99,140.42l-83.45 135.63c-48.48,-55.96 -105.8,-107.71 -157.15,-165.63 -38.74,-43.69 -124.85,-116.16 -137.84,-192.07zm-3437.85 -0.8l810.08 -3.52 0.89 238.58c168.29,-0.02 107.72,25.39 246.59,-109.11 43.73,72.59 77.12,186.28 127.57,238.15l109.7 -216.61c1.13,-1.53 3.78,-4.17 5.61,-6.31l115.15 221.81c57.33,-54.1 68.88,-164.62 123.52,-225.32l114.58 225.02 120.44 -228.29 116.91 226.75c55.48,-55.07 69.77,-173.76 127.02,-224.79l112.61 224.78c47,-48.65 85.63,-177.02 128.24,-230.57 139.3,86.09 7.78,105.7 242.94,103.24l1.94 -234.56 901.11 0.11c10.96,23.83 13.45,46.35 25,68.23 15.32,29.02 23.82,32.37 37.28,59.84 -106.88,48.28 57.03,151.2 143.66,249.13 23.29,26.33 39.44,45.39 63.76,70.53 -12.17,40.46 -256.76,435.36 -298.61,502.37 -24.76,39.64 -70.37,134.81 -106.54,162.59 -54.51,-29.85 -143.1,-95.56 -197.94,-113.34 -50.21,56.85 -254.09,441.47 -312.54,499.81l-93.05 -52.44 -33.15 41.61c-10.65,17.61 -19.27,32.62 -31.17,52.17 -20.51,33.7 -43.63,69.81 -60.25,105.26l-98.48 -51.72c-1.08,16.54 -25.14,31.35 79.33,68.52 -16.13,45.07 -42.28,62.82 -44.83,106.48 36.02,-12.38 48.81,-51.87 61.59,-82.23l83.64 43.76 -317.21 534.87c-34.84,57.98 -83.11,126.37 -107.25,183.43 41.03,27.08 167.52,91.96 194.65,124.14l-425.67 710.94 -492.35 14.92c-14.87,-45.06 -173.31,-302.17 -210.75,-366.57l-210.51 -359.29 195.74 -121.56 -418.59 -711.52c23.74,-31.07 33.89,-29.25 73.9,-50.91 46.11,43.67 23.67,71.18 71.81,79.38 -4.17,-35.21 -28.33,-67.31 -46.74,-93.96 12.06,-8.99 26.18,-20.44 44.39,-31.97 37.73,-23.9 28.99,-7.87 42.91,-38.09 -31.82,-12.39 -58.77,27.58 -101.95,38.73l-120.79 -197.61c-44.45,19.56 -64.27,43.98 -109.7,54.07l-300.83 -503.7 -209.2 119.17c-15.81,-52.03 -374.41,-637.31 -415.11,-709.02 20.92,-28.89 53.97,-45.07 87.65,-67.63 82.37,-55.17 99.7,-65.31 56.13,-109.8 -1.64,-1.67 -4.82,-4.48 -6.22,-5.84 -1.43,-1.4 -4.35,-3.89 -6.45,-5.91 78.17,-29.41 123.68,-105.05 109.56,-216.24zm-566.14 -41.86c67.22,-48.16 121.7,5.69 73.07,69.3l-64.06 -1.58 -9.02 -67.72zm4419.02 9.58l-414.74 -1.44c20,-112.63 215.17,-237.41 289.81,-321.59 162.23,-182.94 236.99,-205.28 378.59,-44.84l153.11 159.49c76.52,68.52 222.7,192.06 178.2,313.96 -31.6,86.54 -224.98,213.92 -310.11,314.8 -191.45,226.85 -279.69,91.46 -375.26,-6.33l144.77 -244.67c53.76,-84.7 74.22,-28.78 113.35,-85.13 46.64,-67.17 -22.57,-163.58 -109.53,-119.14 -37.17,18.99 -5.76,17.7 -48.19,34.89zm-4664.53 320.57c-50.72,-77.83 -205.27,-285.26 -210.01,-352.08 -7.78,-109.68 73.72,-143.32 136.07,-185.56 62.13,-42.09 124.2,-83.98 186.46,-125.95 164.52,-110.93 273.34,-234.53 405.05,-31.28 36.59,56.46 235.58,343.13 247.52,380.32l-371.99 1.08c-42.93,-16.3 -30.78,-94.41 -123.38,-69.06 -61.8,16.93 -54.53,69.6 -54.36,134.8l-176.48 293.11 -38.88 -45.38zm2483.61 -531.78l810.93 -0.03 -3.76 453.93 -110.3 -0.71 -118.1 -123.31c-40.69,63.61 -66.94,159 -116.85,217.67 -25.43,-27.21 -43.08,-73.25 -60.55,-108.53 -19.56,-39.5 -40.49,-75.59 -53.11,-114.82l-125.95 223.23 -115.16 -221.85c-27.94,24.15 -45.71,76.3 -63.81,112.74 -16.62,33.46 -38.26,84.24 -58.42,112.63 -33.87,-49.86 -87.98,-166.63 -115.1,-225.62 -58.8,52.37 -73.26,162.7 -124.48,226.48l-113.37 -224.48 -122.54 226.99 -116.5 -224.53c-46.71,28.97 -86.74,83.02 -129.08,121.3l-101.41 0.83 0.12 -446.56 569.97 -5.64 0 120.92 334.29 1.48c54.17,-3.96 27.22,-3.61 41.03,-14.98 -29.38,-24.58 -17.48,-14.28 -102.22,-14.28l-5.62 -92.89zm-241.25 -90.78c0,-47.86 105.38,-28.39 211.37,-28.5l-1.43 212.17 -202.43 0.07 -7.51 -183.73zm-2414.94 52.09c7.6,18.87 -5.14,3.17 11.61,22.6 1.39,1.61 3.96,4.08 5.55,5.71 1.59,1.64 4.56,3.71 6.13,5.17l13.06 9.89c-138.69,73.15 -115.43,195.72 -40.78,307.76 236.85,355.55 233.28,232.47 86.07,488.06 -71.25,123.71 -307.89,492.26 -346.46,590.94l-200.8 -113.01c-41.13,27.52 -36.45,60.02 -73.33,95.93 -0.53,65.3 24.09,105.67 29.92,168.33l-264.96 -18.73c38.16,68.73 102.89,151.91 133.32,222.69l-253.33 -17.92c22.17,63.79 100.86,156.28 132.85,220.71l-253.34 -14.71c27.94,84.63 93.85,145.12 131.7,223.11l-256.71 -17.73c35.32,67.22 109.09,159.23 131.39,222.2l-253.26 -17.21c33.79,81.25 110.3,151.7 139.49,232.63 -126.78,24.28 -163.9,31.46 -215.28,153.61l199.26 122.22c-26.61,59.57 -65.03,112.45 -95.16,163.74l-194.81 326.25c-26.35,43.46 -70.85,129.5 -100.5,161.13 -73.39,-33.2 -158.72,-138.96 -207.6,-84.11 -1.89,2.13 -7.72,9.96 -9.57,11.93 -1.41,1.5 -4.59,4.22 -5.78,5.43 -1.22,1.25 -4.15,3.53 -6.24,5.27 -203.59,-121.68 -304.93,120.24 -392.42,251.19 -45.39,67.94 -103.46,144.49 -141.11,213.23 -60.75,110.93 2.48,217.82 78.92,250.81 -64.63,64.75 -32.89,73.6 40.84,123.3 66.33,44.71 242.16,183.98 312.74,180.43l15.24 -47.48c45.19,36.57 133.85,64.57 206.16,32.15 64.75,-29.02 91.98,-91.56 131.13,-150.3 76.9,-115.37 144.62,-217.89 220.57,-331.41 129.18,-11.13 262.91,-1.5 392.64,-1.13l434.26 1.16 3.12 239.26 594.01 0 3.56 117.84c121.04,5.7 247.37,10.08 367.89,-2.47 -13.13,-32.88 -62.59,-20.56 -102.28,-20.56l3.52 -94.93c145.03,0.12 732.89,18.55 826.76,-6.19l0 -229.89 952.77 0.01c1.52,72.63 -11.88,191.78 26.54,238.12l52.13 -6.98c15.24,266.67 189.31,213.94 431,207.46 138.13,-3.71 311.1,27.54 393.85,-93.72 28.74,-42.12 22.5,-84.85 29.22,-138.04 25.3,27.7 62.59,17.43 68.56,-25.04 8.99,-63.92 -6.24,-356.49 -14.74,-414.4 -26.56,-16.93 -38.3,-13.06 -68.74,-6.86 -15.47,-125.76 -38.53,-132.59 -123.48,-194.03l420.8 -705.01 199.83 118.41c97.64,-132.37 66.6,-109.08 38.06,-266.92l266.89 20.55c-28.6,-73.52 -100.5,-143.21 -130.89,-224.19l251.95 18.8c-25.31,-69.53 -100.22,-152.03 -131.29,-222.76l255.85 18.54c-20.68,-39.39 -39.19,-67.35 -63.18,-107.38 -20.42,-34.08 -54.42,-79.5 -68.6,-116.89l255.66 19.28c-30.68,-56.21 -112.7,-170.28 -131.04,-223.19l252.41 19.13c-24.69,-77.35 -107.86,-155.45 -136.22,-232.89 220.77,-44.36 115.84,-30.37 216.83,-143.18 -18,-26.52 12.99,2.94 -20.52,-24.73 -4.91,-4.05 -17.88,-11.57 -25.18,-15.89 -16.42,-9.71 -31.98,-19.51 -51.78,-31.5 -32.74,-19.82 -76.81,-39.8 -98.54,-67.13 35.54,-74.52 352.2,-602.77 394.69,-648.94 40.14,18.04 62.96,30.52 79.33,-19 47.61,26.43 143.22,141.37 262.22,50.85l391.61 -368.82c74.32,-91.59 52.22,-199.7 -27.85,-260.6l43.68 -32.78c-3.37,-86.06 -113,-149.75 -166.19,-209.67 -24.32,-27.41 -181.26,-223.59 -180.32,-90.75 -37.48,-48.62 -124.34,-103.25 -222.31,-63.46 -77.5,31.48 -336.17,301.95 -418.35,384.04 -142.91,142.75 208.14,102.61 -953.4,102.61l-1.82 -232.31 -830.33 -3.55 2.57 -94.66c41.22,0.07 75.7,8.44 100.63,-13.14 -34.76,-27.11 -301.42,-12.3 -370.02,-10.05l0.02 118.02 -591.38 0 -5.05 238.5 -825.48 2.88c-17.32,-56.07 -177.59,-279.51 -220.6,-344.06 -81.55,-122.37 -158.96,-241.01 -338.39,-123.16l-20.09 -47.02c-67.07,-4.76 -239.13,134.69 -301.32,176.59 -35.77,24.1 -73.53,37.15 -88,82.05z"/>
 </g>
</svg>
